<?xml version="1.0" encoding="utf-8"?>
<!-- Generator: Adobe Illustrator 19.1.0, SVG Export Plug-In . SVG Version: 6.00 Build 0)  -->
<svg version="1.1" id="Calque_1" xmlns="http://www.w3.org/2000/svg" xmlns:xlink="http://www.w3.org/1999/xlink" x="0px" y="0px"
	 viewBox="0 0 256 128" style="enable-background:new 0 0 256 128;" xml:space="preserve">
<style type="text/css">
	.st0{fill:none;stroke:#FF4081;stroke-width:4;stroke-miterlimit:10;}
	.st1{fill:#FF4081;}
	.st2{fill:#FFFFFF;}
</style>
<path class="st0" d="M48.2,43.1c16.1,0,16.1,40.7,32.1,40.7s16.1-40.7,32.1-40.7s16.1,40.7,32.1,40.7s16.1-40.7,32.1-40.7
	s16.1,40.7,32.1,40.7"/>
<path class="st1" d="M37.6,40.9c-0.9-5.8-5.7-10.1-11.2-11.7c2.4-2.6,3.6-6.9,3.6-9.7c0-4.4-3.6-9-8.3-9s-8.3,4.6-8.3,9
	c0,2.9,1.3,7.2,3.6,9.8c-5.4,1.6-10.2,6-11.1,11.7c-0.4,2.4,2.4,3.9,4.2,4.7c3.5,1.6,7.5,2.1,11.3,2.1c3.9,0,7.9-0.5,11.5-2
	C34.9,45,38,43.4,37.6,40.9z"/>
<path class="st1" d="M250,110.7c-0.9-5.8-5.7-10.1-11.2-11.7c2.4-2.6,3.6-6.9,3.6-9.7c0-4.4-3.6-9-8.3-9c-4.6,0-8.3,4.6-8.3,9
	c0,2.9,1.3,7.2,3.6,9.8c-5.4,1.6-10.2,6-11.1,11.7c-0.4,2.4,2.4,3.9,4.2,4.7c3.5,1.6,7.5,2.1,11.3,2.1c3.9,0,7.9-0.5,11.5-2
	C247.3,114.8,250.4,113.2,250,110.7z"/>
<circle class="st1" cx="128.8" cy="64.5" r="11"/>
<circle class="st2" cx="128.7" cy="64.4" r="7"/>
</svg>
