<?xml version="1.0" encoding="utf-8"?>
<!-- Generator: Adobe Illustrator 19.1.0, SVG Export Plug-In . SVG Version: 6.00 Build 0)  -->
<svg version="1.1" id="Calque_1" xmlns="http://www.w3.org/2000/svg" xmlns:xlink="http://www.w3.org/1999/xlink" x="0px" y="0px"
	 viewBox="0 0 180 180" style="enable-background:new 0 0 180 180;" xml:space="preserve">
<style type="text/css">
	.st0{fill:#FF4081;}
</style>
<g transform="translate(-570 -320)">
	<g>
		<path class="st0" d="M746,410c0-47.5-38.5-86-86-86s-86,38.5-86,86c0,14.9,3.8,29,10.5,41.2c1.4-1.9,3.1-3.5,5-4.8
			c-5.7-10.9-8.9-23.3-8.9-36.4c0-43.8,35.6-79.4,79.4-79.4s79.4,35.6,79.4,79.4s-35.6,79.4-79.4,79.4c-16.5,0-31.8-5.1-44.5-13.7
			c-1.5,1.8-3.2,3.2-5.3,4.4c14.1,10,31.2,15.9,49.7,15.9C707.5,496,746,457.5,746,410z"/>
		<path class="st0" d="M660,357.1c-3.7,0-7.3,0.4-10.9,1.1c1.4,1.8,2.5,3.9,3.2,6.2c2.5-0.4,5-0.7,7.6-0.7
			c25.5,0,46.3,20.8,46.3,46.3c0,2.6-0.3,5.1-0.7,7.6c2.3,0.7,4.3,1.8,6.2,3.2c0.7-3.5,1.1-7.1,1.1-10.9
			C712.9,380.8,689.2,357.1,660,357.1z"/>
		<path class="st0" d="M660,462.9c11.1,0,21.4-3.4,29.9-9.3c-2-1.2-3.8-2.7-5.3-4.5c-7.1,4.5-15.6,7.1-24.6,7.1
			c-25.5,0-46.3-20.8-46.3-46.3c0-9,2.6-17.4,7.1-24.6c-1.8-1.5-3.3-3.3-4.5-5.3c-5.8,8.5-9.3,18.8-9.3,29.9
			C607.1,439.2,630.8,462.9,660,462.9z"/>
		<circle class="st0" cx="660" cy="410" r="13.2"/>
		<circle class="st0" cx="699.7" cy="436.5" r="13.2"/>
		<circle class="st0" cx="633.5" cy="370.3" r="13.2"/>
		<circle class="st0" cx="600.5" cy="462.9" r="13.2"/>
	</g>
</g>
</svg>
