<?xml version="1.0" encoding="utf-8"?>
<!-- Generator: Adobe Illustrator 19.1.0, SVG Export Plug-In . SVG Version: 6.00 Build 0)  -->
<svg version="1.1" id="Calque_1" xmlns="http://www.w3.org/2000/svg" xmlns:xlink="http://www.w3.org/1999/xlink" x="0px" y="0px"
	 viewBox="-869 331 180 180" style="enable-background:new -869 331 180 180;" xml:space="preserve">
<style type="text/css">
	.st0{fill:#BDBDBD;}
	.st1{fill:#FFFFFF;}
</style>
<path class="st0" d="M-693,421c0-47.5-38.5-86-86-86s-86,38.5-86,86c0,14.9,3.8,29,10.5,41.2c1.4-1.9,3.1-3.5,5-4.8
	c-5.7-10.9-8.9-23.3-8.9-36.4c0-43.8,35.6-79.4,79.4-79.4s79.4,35.6,79.4,79.4s-35.6,79.4-79.4,79.4c-16.5,0-31.8-5.1-44.5-13.7
	c-1.5,1.8-3.2,3.2-5.3,4.4c14.1,10,31.2,15.9,49.8,15.9C-731.5,507-693,468.5-693,421z"/>
<circle class="st1" cx="-733.3" cy="353.9" r="20.1"/>
<circle class="st0" cx="-733.3" cy="353.9" r="13.2"/>
<circle class="st0" cx="-838.5" cy="473.9" r="13.2"/>
<g>
	<path class="st0" d="M-744.5,413.4L-744.5,413.4l-12.3-12l0,0c-1.8-1.9-4.3-3-7.2-3c-4.4,0-8,2.8-9.4,6.7c-1.6-1.1-3.5-1.7-5.6-1.7
		s-4,0.6-5.6,1.7c-1.4-3.9-5-6.7-9.4-6.7c-2.8,0-5.4,1.2-7.2,3l0,0l-12.4,12l0,0c-3.3,3.2-5.5,7.7-5.5,12.6
		c0,9.7,7.8,17.5,17.5,17.5c7.8,0,14.3-5.1,16.6-12.1c1.7,1.2,3.7,2,5.9,2c2.2,0,4.3-0.8,5.9-2c2.3,7,8.8,12.1,16.6,12.1
		c9.7,0,17.5-7.8,17.5-17.5C-739,421.1-741.1,416.6-744.5,413.4z M-801.5,438.6c-6.9,0-12.5-5.6-12.5-12.5s5.6-12.5,12.5-12.5
		s12.5,5.6,12.5,12.5S-794.6,438.6-801.5,438.6z M-756.5,438.6c-6.9,0-12.5-5.6-12.5-12.5s5.6-12.5,12.5-12.5s12.5,5.6,12.5,12.5
		S-749.6,438.6-756.5,438.6z"/>
</g>
</svg>
