<?xml version="1.0" encoding="utf-8"?>
<!-- Generator: Adobe Illustrator 19.1.0, SVG Export Plug-In . SVG Version: 6.00 Build 0)  -->
<svg version="1.1" id="Calque_1" xmlns="http://www.w3.org/2000/svg" xmlns:xlink="http://www.w3.org/1999/xlink" x="0px" y="0px"
	 viewBox="-869 331 180 180" style="enable-background:new -869 331 180 180;" xml:space="preserve">
<style type="text/css">
	.st0{fill:#BDBDBD;}
</style>
<path class="st0" d="M-693,421c0-47.5-38.5-86-86-86s-86,38.5-86,86c0,14.9,3.8,29,10.5,41.2c1.4-1.9,3.1-3.5,5-4.8
	c-5.7-10.9-8.9-23.3-8.9-36.4c0-43.8,35.6-79.4,79.4-79.4s79.4,35.6,79.4,79.4s-35.6,79.4-79.4,79.4c-16.5,0-31.8-5.1-44.5-13.7
	c-1.5,1.8-3.2,3.2-5.3,4.4c14.1,10,31.2,15.9,49.8,15.9C-731.5,507-693,468.5-693,421z"/>
<path class="st0" d="M-779,368.1c-3.7,0-7.3,0.4-10.9,1.1c1.4,1.8,2.5,3.9,3.2,6.2c2.5-0.4,5-0.7,7.6-0.7
	c25.5,0,46.3,20.8,46.3,46.3c0,2.6-0.3,5.1-0.7,7.6c2.3,0.7,4.3,1.8,6.2,3.2c0.7-3.5,1.1-7.1,1.1-10.9
	C-726.1,391.8-749.8,368.1-779,368.1z"/>
<path class="st0" d="M-779,473.9c11.1,0,21.4-3.4,29.9-9.3c-2-1.2-3.8-2.7-5.3-4.5c-7.1,4.5-15.6,7.1-24.6,7.1
	c-25.5,0-46.3-20.8-46.3-46.3c0-9,2.6-17.4,7.1-24.6c-1.8-1.5-3.3-3.3-4.5-5.3c-5.8,8.5-9.3,18.8-9.3,29.9
	C-831.9,450.2-808.2,473.9-779,473.9z"/>
<path class="st0" d="M-796.3,372.1c0,0-5.3-2.8-9,2c0,0-3.1-3.7-7.6-2.5c0,0-6.4,1.6-5.4,7.8c0,0-0.8,4.7,13,15.9
	c0,0,9.4-7.9,11.9-13C-793.5,382.4-789.8,375.8-796.3,372.1z"/>
<path class="st0" d="M-769.9,409.8c0,0-5.3-2.8-9,2c0,0-3.1-3.7-7.6-2.5c0,0-6.4,1.6-5.4,7.8c0,0-0.8,4.7,13,15.9
	c0,0,9.4-7.9,11.9-13C-767,420.1-763.4,413.5-769.9,409.8z"/>
<path class="st0" d="M-828.4,465.7c0,0-5.3-2.8-9,2c0,0-3.1-3.7-7.6-2.5c0,0-6.4,1.6-5.4,7.8c0,0-0.8,4.7,13,15.9
	c0,0,9.4-7.9,11.9-13C-825.5,476-821.9,469.4-828.4,465.7z"/>
<path class="st0" d="M-730.2,438.2c0,0-5.3-2.8-9,2c0,0-3.1-3.7-7.6-2.5c0,0-6.4,1.6-5.4,7.8c0,0-0.8,4.7,13,15.9
	c0,0,9.4-7.9,11.9-13C-727.3,448.5-723.7,441.9-730.2,438.2z"/>
</svg>
