<?xml version="1.0" encoding="utf-8"?>
<!-- Generator: Adobe Illustrator 19.1.0, SVG Export Plug-In . SVG Version: 6.00 Build 0)  -->
<svg version="1.1" id="Calque_1" xmlns="http://www.w3.org/2000/svg" xmlns:xlink="http://www.w3.org/1999/xlink" x="0px" y="0px"
	 viewBox="0 0 180 180" style="enable-background:new 0 0 180 180;" xml:space="preserve">
<style type="text/css">
	.st0{fill:#FF4081;}
	.st1{fill:#FFFFFF;}
</style>
<path class="st0" d="M176,90c0-47.5-38.5-86-86-86S4,42.5,4,90c0,14.9,3.8,29,10.5,41.2c1.4-1.9,3.1-3.5,5-4.8
	c-5.7-10.9-8.9-23.3-8.9-36.4c0-43.8,35.6-79.4,79.4-79.4s79.4,35.6,79.4,79.4s-35.6,79.4-79.4,79.4c-16.5,0-31.8-5.1-44.5-13.7
	c-1.5,1.8-3.2,3.2-5.3,4.4C54.3,170.1,71.4,176,90,176C137.5,176,176,137.5,176,90z"/>
<circle class="st1" cx="135.7" cy="22.9" r="20.1"/>
<circle class="st0" cx="135.7" cy="22.9" r="13.2"/>
<circle class="st0" cx="30.5" cy="142.9" r="13.2"/>
<g>
	<path class="st0" d="M124.5,82.4L124.5,82.4l-12.3-12h0c-1.8-1.9-4.3-3-7.2-3c-4.4,0-8,2.8-9.4,6.7c-1.6-1.1-3.5-1.7-5.6-1.7
		s-4,0.6-5.6,1.7c-1.4-3.9-5-6.7-9.4-6.7c-2.8,0-5.4,1.2-7.2,3h0l-12.4,12h0c-3.3,3.2-5.5,7.7-5.5,12.6c0,9.7,7.8,17.5,17.5,17.5
		c7.8,0,14.3-5.1,16.6-12.1c1.7,1.2,3.7,2,5.9,2s4.3-0.8,5.9-2c2.3,7,8.8,12.1,16.6,12.1c9.7,0,17.5-7.8,17.5-17.5
		C130,90.1,127.9,85.6,124.5,82.4z M67.5,107.6c-6.9,0-12.5-5.6-12.5-12.5c0-6.9,5.6-12.5,12.5-12.5S80,88.2,80,95.1
		C80,102,74.4,107.6,67.5,107.6z M112.5,107.6c-6.9,0-12.5-5.6-12.5-12.5c0-6.9,5.6-12.5,12.5-12.5S125,88.2,125,95.1
		C125,102,119.4,107.6,112.5,107.6z"/>
</g>
</svg>
