<?xml version="1.0" encoding="utf-8"?>
<!-- Generator: Adobe Illustrator 19.1.0, SVG Export Plug-In . SVG Version: 6.00 Build 0)  -->
<svg version="1.1" id="Calque_1" xmlns:x="&ns_extend;" xmlns:i="&ns_ai;" xmlns:graph="&ns_graphs;"
	 xmlns="http://www.w3.org/2000/svg" xmlns:xlink="http://www.w3.org/1999/xlink" x="0px" y="0px" viewBox="0 0 320 240"
	 style="enable-background:new 0 0 320 240;" xml:space="preserve">
<style type="text/css">
	.st0{opacity:0.6;}
	.st1{fill:#FFC107;}
	.st2{opacity:0.6;fill:#FFC107;}
</style>
<metadata>
	<sfw  xmlns="&ns_sfw;">
		<slices></slices>
		<sliceSourceBounds  width="300" height="234,5" y="-236,8" x="9,8" bottomLeftOrigin="true"></sliceSourceBounds>
	</sfw>
</metadata>
<g class="st0">
	<path class="st1" d="M272.2,18.6c-8.4,0-14.8,6.7-14.8,14.8c0,8.4,6.7,14.8,14.8,14.8c8.4,0,14.8-6.7,14.8-14.8
		S280.2,18.6,272.2,18.6z M272.2,39.5c-3.2,0-6.1-2.6-6.1-6.1c0-3.2,2.6-6.1,6.1-6.1c3.2,0,6.1,2.6,6.1,6.1
		C278,36.9,275.4,39.5,272.2,39.5z"/>
	<path class="st1" d="M272.9,2.3c-20.2,0-36.6,16.4-36.6,36.6c0,16.1,9,30.5,16.4,39.8c4.5,5.5,8.7,9.6,11.6,12.2
		c1,1,1.6,1.6,2.6,2.2l-9,34.7l-114.7,21.8L67,120.5l-5.8,26.3c-4.5-1.9-9.3-3.2-14.8-3.2c-20.2,0-36.6,16.7-36.6,36.9
		c0,16.1,9,30.5,16.4,39.8c4.5,5.5,8.7,9,11.6,11.6c6.1,5.5,7.7,4.8,8.7,4.8l0,0c1.3,0,2.6,0.6,8.7-4.8c2.9-2.6,7.1-6.4,11.6-11.9
		C74,210.7,83,196.3,83,180.5c0-11.6-5.5-21.8-13.8-28.6l4.2-19l68.7,26.3l122.7-23.4l10.3-39.5c1.3-0.6,3.2-1.9,6.7-5.1
		c2.9-2.6,7.1-6.7,11.6-12.2c7.4-9.3,16.4-23.8,16.4-39.8C309.5,18.6,293.1,2.3,272.9,2.3z M74.4,180.5c0,21.2-20.9,42.4-27.6,47.9
		c-6.4-5.1-27.9-25.4-27.9-47.9c0-15.4,12.5-27.6,27.9-27.6C61.8,152.6,74.4,165.1,74.4,180.5z M272.9,86.7
		c-6.4-5.1-27.9-25.4-27.9-47.9c0-15.4,12.5-27.6,27.9-27.6c15.4,0,27.9,12.5,27.9,27.6C300.8,60.1,279.9,81.3,272.9,86.7z"/>
	<path class="st1" d="M45.8,160.3c-8.4,0-14.8,6.7-14.8,14.8c0,8.4,6.7,14.8,14.8,14.8s14.8-6.7,14.8-14.8
		C60.5,166.7,53.8,160.3,45.8,160.3z M45.8,180.8c-3.2,0-6.1-2.6-6.1-6.1c0-3.2,2.6-6.1,6.1-6.1s6.1,2.6,6.1,6.1
		C51.9,178.3,49,180.8,45.8,180.8z"/>
</g>
<path class="st2" d="M182.3,123.7c-12.2,0-21.8,10-21.8,21.8c0,12.2,10,21.8,21.8,21.8c12.2,0,21.8-10,21.8-21.8
	C204.1,133.3,194.2,123.7,182.3,123.7z M182.3,158.7c-7.1,0-13.2-5.8-13.2-13.2c0-7.1,5.8-13.2,13.2-13.2c7.4,0,13.2,5.8,13.2,13.2
	C195.1,152.6,189.4,158.7,182.3,158.7z"/>
<circle class="st2" cx="182.3" cy="145.5" r="9.3"/>
</svg>
